<?xml version="1.0" encoding="UTF-8"?>
<svg xmlns="http://www.w3.org/2000/svg" xmlns:xlink="http://www.w3.org/1999/xlink" viewBox="0 0 100 100" width="100px" height="100px">
<g id="surface105213891">
<path style=" stroke:none;fill-rule:nonzero;fill:rgb(100%,100%,100%);fill-opacity:1;" d="M 10 23.332031 C 8.796875 23.316406 7.679688 23.949219 7.074219 24.984375 C 6.46875 26.023438 6.46875 27.308594 7.074219 28.347656 C 7.679688 29.386719 8.796875 30.015625 10 30 L 90 30 C 91.203125 30.015625 92.320312 29.386719 92.925781 28.347656 C 93.53125 27.308594 93.53125 26.023438 92.925781 24.984375 C 92.320312 23.949219 91.203125 23.316406 90 23.332031 Z M 10 46.667969 C 8.796875 46.648438 7.679688 47.28125 7.074219 48.320312 C 6.46875 49.359375 6.46875 50.640625 7.074219 51.679688 C 7.679688 52.71875 8.796875 53.351562 10 53.332031 L 90 53.332031 C 91.203125 53.351562 92.320312 52.71875 92.925781 51.679688 C 93.53125 50.640625 93.53125 49.359375 92.925781 48.320312 C 92.320312 47.28125 91.203125 46.648438 90 46.667969 Z M 10 70 C 8.796875 69.984375 7.679688 70.613281 7.074219 71.652344 C 6.46875 72.691406 6.46875 73.976562 7.074219 75.015625 C 7.679688 76.050781 8.796875 76.683594 10 76.667969 L 90 76.667969 C 91.203125 76.683594 92.320312 76.050781 92.925781 75.015625 C 93.53125 73.976562 93.53125 72.691406 92.925781 71.652344 C 92.320312 70.613281 91.203125 69.984375 90 70 Z M 10 70 "/>
</g>
</svg>
